<?xml version="1.0" encoding="UTF-8"?>
<svg width="48px" height="48px" viewBox="0 0 48 48" version="1.1" xmlns="http://www.w3.org/2000/svg" xmlns:xlink="http://www.w3.org/1999/xlink">
    <g id="Symbols" stroke="none" stroke-width="1" fill="none" fill-rule="evenodd">
        <g id="Menu/120-V2" transform="translate(-24.000000, -36.000000)">
            <g id="Logo/black" transform="translate(24.000000, 36.000000)">
                <g id="dots" transform="translate(0.000000, 0.120287)" fill="#282D31">
                    <path d="M29.780344,23.617915 C29.780344,20.5613748 27.2200348,18.0832283 24.0614647,18.0832283 C20.9032039,18.0832283 18.3422763,20.5613748 18.3422763,23.617915 C18.3422763,26.6747545 20.9032039,29.1526018 24.0614647,29.1526018 C27.2200348,29.1526018 29.780344,26.6747545 29.780344,23.617915" id="Fill-43"></path>
                    <path d="M26.921028,2.76719377 C26.921028,1.23877403 25.6407188,-7.10542736e-15 24.0614338,-7.10542736e-15 C22.4821488,-7.10542736e-15 21.2021488,1.23877403 21.2021488,2.76719377 C21.2021488,4.29561351 22.4821488,5.53438753 24.0614338,5.53438753 C25.6407188,5.53438753 26.921028,4.29561351 26.921028,2.76719377" id="Fill-45"></path>
                    <path d="M20.0235285,3.83200083 C20.0235285,2.34427512 18.777229,1.13811616 17.2399923,1.13811616 C15.7024464,1.13811616 14.456456,2.34427512 14.456456,3.83200083 C14.456456,5.31972655 15.7024464,6.52588551 17.2399923,6.52588551 C18.777229,6.52588551 20.0235285,5.31972655 20.0235285,3.83200083" id="Fill-47"></path>
                    <path d="M14.0232348,6.79709922 C14.0232348,5.34976831 12.8109449,4.17682286 11.3157565,4.17682286 C9.81994976,4.17682286 8.6076599,5.34976831 8.6076599,6.79709922 C8.6076599,8.24443013 9.81994976,9.41737558 11.3157565,9.41737558 C12.8109449,9.41737558 14.0232348,8.24443013 14.0232348,6.79709922" id="Fill-49"></path>
                    <path d="M9.27551691,11.318415 C9.27551691,9.91177808 8.09723671,8.77174691 6.64378744,8.77174691 C5.19033816,8.77174691 4.01205797,9.91177808 4.01205797,11.318415 C4.01205797,12.7250518 5.19033816,13.8653822 6.64378744,13.8653822 C8.09723671,13.8653822 9.27551691,12.7250518 9.27551691,11.318415" id="Fill-51"></path>
                    <path d="M6.13571401,17.0520237 C6.13571401,15.6860808 4.99144348,14.5786647 3.58004251,14.5786647 C2.16864155,14.5786647 1.02406184,15.6860808 1.02406184,17.0520237 C1.02406184,18.4179665 2.16864155,19.5253826 3.58004251,19.5253826 C4.99144348,19.5253826 6.13571401,18.4179665 6.13571401,17.0520237" id="Fill-53"></path>
                    <path d="M4.95922705,23.6538514 C4.95922705,22.3286026 3.84896618,21.2541008 2.47961353,21.2541008 C1.10995169,21.2541008 -2.75601764e-12,22.3286026 -2.75601764e-12,23.6538514 C-2.75601764e-12,24.9791003 1.10995169,26.0536021 2.47961353,26.0536021 C3.84896618,26.0536021 4.95922705,24.9791003 4.95922705,23.6538514" id="Fill-55"></path>
                    <path d="M5.98369082,30.2556792 C5.98369082,28.9708251 4.90774879,27.9292376 3.58013527,27.9292376 C2.25252174,27.9292376 1.17596135,28.9708251 1.17596135,30.2556792 C1.17596135,31.5405332 2.25252174,32.5821207 3.58013527,32.5821207 C4.90774879,32.5821207 5.98369082,31.5405332 5.98369082,30.2556792" id="Fill-57"></path>
                    <path d="M8.97162512,35.9892281 C8.97162512,34.7450681 7.9290744,33.7363948 6.64381836,33.7363948 C5.35825314,33.7363948 4.31570242,34.7450681 4.31570242,35.9892281 C4.31570242,37.2333881 5.35825314,38.2420613 6.64381836,38.2420613 C7.9290744,38.2420613 8.97162512,37.2333881 8.97162512,35.9892281" id="Fill-59"></path>
                    <path d="M13.5674744,40.5105438 C13.5674744,39.3070778 12.5589333,38.3313189 11.3157256,38.3313189 C10.0718995,38.3313189 9.06397681,39.3070778 9.06397681,40.5105438 C9.06397681,41.7140098 10.0718995,42.6897687 11.3157256,42.6897687 C12.5589333,42.6897687 13.5674744,41.7140098 13.5674744,40.5105438" id="Fill-61"></path>
                    <path d="M19.4160541,43.475702 C19.4160541,42.3126309 18.4415227,41.3697862 17.2400541,41.3697862 C16.0382763,41.3697862 15.0640541,42.3126309 15.0640541,43.475702 C15.0640541,44.6387732 16.0382763,45.5813186 17.2400541,45.5813186 C18.4415227,45.5813186 19.4160541,44.6387732 19.4160541,43.475702" id="Fill-63"></path>
                    <path d="M26.1615304,44.5405091 C26.1615304,43.4181319 25.2210087,42.5082016 24.0615884,42.5082016 C22.9018589,42.5082016 21.9619556,43.4181319 21.9619556,44.5405091 C21.9619556,45.6628862 22.9018589,46.5728166 24.0615884,46.5728166 C25.2210087,46.5728166 26.1615304,45.6628862 26.1615304,44.5405091" id="Fill-65"></path>
                    <path d="M32.9070068,43.475702 C32.9070068,42.3940189 32.0004947,41.5170028 30.8828135,41.5170028 C29.7651324,41.5170028 28.8592386,42.3940189 28.8592386,43.475702 C28.8592386,44.5573851 29.7651324,45.4344012 30.8828135,45.4344012 C32.0004947,45.4344012 32.9070068,44.5573851 32.9070068,43.475702" id="Fill-67"></path>
                    <path d="M38.7554319,40.5105438 C38.7554319,39.4692555 37.8832386,38.6254529 36.8076058,38.6254529 C35.7313546,38.6254529 34.8594705,39.4692555 34.8594705,40.5105438 C34.8594705,41.5518321 35.7313546,42.3959339 36.8076058,42.3959339 C37.8832386,42.3959339 38.7554319,41.5518321 38.7554319,40.5105438" id="Fill-69"></path>
                    <path d="M43.3512812,35.9892281 C43.3512812,34.9886338 42.5130976,34.1774462 41.4792039,34.1774462 C40.4453101,34.1774462 39.6074357,34.9886338 39.6074357,35.9892281 C39.6074357,36.9898223 40.4453101,37.8010099 41.4792039,37.8010099 C42.5130976,37.8010099 43.3512812,36.9898223 43.3512812,35.9892281" id="Fill-71"></path>
                    <path d="M46.3392155,30.2556792 C46.3392155,29.2957789 45.5350415,28.5175057 44.5431961,28.5175057 C43.5507324,28.5175057 42.7465585,29.2957789 42.7465585,30.2556792 C42.7465585,31.2155794 43.5507324,31.9938527 44.5431961,31.9938527 C45.5350415,31.9938527 46.3392155,31.2155794 46.3392155,30.2556792" id="Fill-73"></path>
                    <path d="M47.36337,23.6538514 C47.36337,22.734346 46.5932058,21.9892862 45.6430995,21.9892862 C44.6933024,21.9892862 43.9231382,22.734346 43.9231382,23.6538514 C43.9231382,24.5733569 44.6933024,25.3184166 45.6430995,25.3184166 C46.5932058,25.3184166 47.36337,24.5733569 47.36337,23.6538514" id="Fill-75"></path>
                    <path d="M46.1871923,17.0520237 C46.1871923,16.1732123 45.4510377,15.4607676 44.5432889,15.4607676 C43.6352309,15.4607676 42.8990763,16.1732123 42.8990763,17.0520237 C42.8990763,17.9308351 43.6352309,18.6432798 44.5432889,18.6432798 C45.4510377,18.6432798 46.1871923,17.9308351 46.1871923,17.0520237" id="Fill-77"></path>
                    <path d="M43.047544,11.318415 C43.047544,10.4802976 42.345399,9.80076717 41.4790802,9.80076717 C40.6130705,9.80076717 39.9109256,10.4802976 39.9109256,11.318415 C39.9109256,12.1565324 40.6130705,12.8360628 41.4790802,12.8360628 C42.345399,12.8360628 43.047544,12.1565324 43.047544,11.318415" id="Fill-79"></path>
                    <path d="M38.2998261,6.79709922 C38.2998261,5.99937662 37.6313816,5.35305974 36.8074203,5.35305974 C35.9834589,5.35305974 35.3150145,5.99937662 35.3150145,6.79709922 C35.3150145,7.59482182 35.9834589,8.24143792 36.8074203,8.24143792 C37.6313816,8.24143792 38.2998261,7.59482182 38.2998261,6.79709922" id="Fill-81"></path>
                    <path d="M32.2993469,3.83200083 C32.2993469,3.07497226 31.6652213,2.46127044 30.8826899,2.46127044 C30.1007768,2.46127044 29.4666512,3.07497226 29.4666512,3.83200083 C29.4666512,4.5890294 30.1007768,5.20273122 30.8826899,5.20273122 C31.6652213,5.20273122 32.2993469,4.5890294 32.2993469,3.83200083" id="Fill-83"></path>
                    <path d="M26.921028,9.83287356 C26.921028,8.30445382 25.6407188,7.06538057 24.0614338,7.06538057 C22.4821488,7.06538057 21.2021488,8.30445382 21.2021488,9.83287356 C21.2021488,11.3612933 22.4821488,12.6000673 24.0614338,12.6000673 C25.6407188,12.6000673 26.921028,11.3612933 26.921028,9.83287356" id="Fill-85"></path>
                    <path d="M19.6053643,11.7149423 C19.6053643,10.2541465 18.3816348,9.07012987 16.8722242,9.07012987 C15.3631227,9.07012987 14.1393932,10.2541465 14.1393932,11.7149423 C14.1393932,13.1757382 15.3631227,14.3597548 16.8722242,14.3597548 C18.3816348,14.3597548 19.6053643,13.1757382 19.6053643,11.7149423" id="Fill-87"></path>
                    <path d="M14.3686493,16.6603437 C14.3686493,15.2671717 13.2014995,14.1379125 11.7625816,14.1379125 C10.3230454,14.1379125 9.15589565,15.2671717 9.15589565,16.6603437 C9.15589565,18.0535156 10.3230454,19.1827749 11.7625816,19.1827749 C13.2014995,19.1827749 14.3686493,18.0535156 14.3686493,16.6603437" id="Fill-89"></path>
                    <path d="M12.297399,23.617915 C12.297399,22.2926662 11.1871382,21.2181644 9.81747633,21.2181644 C8.44812367,21.2181644 7.33755362,22.2926662 7.33755362,23.617915 C7.33755362,24.9434631 8.44812367,26.0176657 9.81747633,26.0176657 C11.1871382,26.0176657 12.297399,24.9434631 12.297399,23.617915" id="Fill-91"></path>
                    <path d="M14.1154937,30.5755462 C14.1154937,29.3179212 13.0621217,28.2981768 11.7626435,28.2981768 C10.4625469,28.2981768 9.40917488,29.3179212 9.40917488,30.5755462 C9.40917488,31.8331711 10.4625469,32.8529155 11.7626435,32.8529155 C13.0621217,32.8529155 14.1154937,31.8331711 14.1154937,30.5755462" id="Fill-93"></path>
                    <path d="M19.0985585,35.5210074 C19.0985585,34.3310063 18.1020754,33.3663185 16.8721623,33.3663185 C15.6425585,33.3663185 14.6457662,34.3310063 14.6457662,35.5210074 C14.6457662,36.7110084 15.6425585,37.6756962 16.8721623,37.6756962 C18.1020754,37.6756962 19.0985585,36.7110084 19.0985585,35.5210074" id="Fill-95"></path>
                    <path d="M26.1615304,37.4030163 C26.1615304,36.2806392 25.2210087,35.3707088 24.0615884,35.3707088 C22.9018589,35.3707088 21.9619556,36.2806392 21.9619556,37.4030163 C21.9619556,38.5253935 22.9018589,39.4353238 24.0615884,39.4353238 C25.2210087,39.4353238 26.1615304,38.5253935 26.1615304,37.4030163" id="Fill-97"></path>
                    <path d="M33.2238841,35.5210074 C33.2238841,34.4662541 32.3405604,33.6110811 31.2503961,33.6110811 C30.1608502,33.6110811 29.2775266,34.4662541 29.2775266,35.5210074 C29.2775266,36.5757606 30.1608502,37.4306344 31.2503961,37.4306344 C32.3405604,37.4306344 33.2238841,36.5757606 33.2238841,35.5210074" id="Fill-99"></path>
                    <path d="M38.2074126,30.5755462 C38.2074126,29.5884168 37.3806686,28.7883005 36.3606879,28.7883005 C35.3410164,28.7883005 34.5139633,29.5884168 34.5139633,30.5755462 C34.5139633,31.5626755 35.3410164,32.3627919 36.3606879,32.3627919 C37.3806686,32.3627919 38.2074126,31.5626755 38.2074126,30.5755462" id="Fill-101"></path>
                    <path d="M40.0255072,23.617915 C40.0255072,22.6987088 39.255343,21.9533498 38.3052367,21.9533498 C37.3551304,21.9533498 36.5849662,22.6987088 36.5849662,23.617915 C36.5849662,24.5374205 37.3551304,25.2827794 38.3052367,25.2827794 C39.255343,25.2827794 40.0255072,24.5374205 40.0255072,23.617915" id="Fill-103"></path>
                    <path d="M37.954257,16.6603437 C37.954257,15.8084621 37.2406725,15.1181598 36.3607498,15.1181598 C35.4805179,15.1181598 34.7672425,15.8084621 34.7672425,16.6603437 C34.7672425,17.5122252 35.4805179,18.2025276 36.3607498,18.2025276 C37.2406725,18.2025276 37.954257,17.5122252 37.954257,16.6603437" id="Fill-105"></path>
                    <path d="M32.717542,11.7149423 C32.717542,10.9306847 32.0605372,10.2951397 31.2504889,10.2951397 C30.4404406,10.2951397 29.7837449,10.9306847 29.7837449,11.7149423 C29.7837449,12.4989008 30.4404406,13.1347449 31.2504889,13.1347449 C32.0605372,13.1347449 32.717542,12.4989008 32.717542,11.7149423" id="Fill-107"></path>
                </g>
            </g>
        </g>
    </g>
</svg>