<svg id="Ebene_1" data-name="Ebene 1" xmlns="http://www.w3.org/2000/svg" viewBox="0 0 48 48"><defs><style>.cls-1{fill:#fff;fill-rule:evenodd;}</style></defs><g id="Symbols"><g id="Menu_120-V2" data-name="Menu/120-V2"><g id="Logo_black" data-name="Logo/black"><g id="dots"><path id="Fill-43" class="cls-1" d="M29.78,23.74a5.72,5.72,0,1,0-5.72,5.53,5.63,5.63,0,0,0,5.72-5.53"/><path id="Fill-45" class="cls-1" d="M26.92,2.89a2.86,2.86,0,0,0-5.72,0,2.86,2.86,0,0,0,5.72,0"/><path id="Fill-47" class="cls-1" d="M20,4a2.78,2.78,0,0,0-5.56,0A2.78,2.78,0,0,0,20,4"/><path id="Fill-49" class="cls-1" d="M14,6.92a2.71,2.71,0,0,0-5.41,0,2.71,2.71,0,0,0,5.41,0"/><path id="Fill-51" class="cls-1" d="M9.28,11.44A2.59,2.59,0,0,0,6.64,8.89a2.55,2.55,0,1,0,0,5.1,2.59,2.59,0,0,0,2.64-2.55"/><path id="Fill-53" class="cls-1" d="M6.14,17.17A2.52,2.52,0,0,0,3.58,14.7a2.48,2.48,0,1,0,0,4.95,2.52,2.52,0,0,0,2.56-2.48"/><path id="Fill-55" class="cls-1" d="M5,23.77a2.44,2.44,0,0,0-2.48-2.4,2.4,2.4,0,1,0,0,4.8A2.44,2.44,0,0,0,5,23.77"/><path id="Fill-57" class="cls-1" d="M6,30.38a2.36,2.36,0,0,0-2.4-2.33,2.33,2.33,0,1,0,0,4.65A2.36,2.36,0,0,0,6,30.38"/><path id="Fill-59" class="cls-1" d="M9,36.11a2.29,2.29,0,0,0-2.33-2.25,2.25,2.25,0,1,0,0,4.5A2.29,2.29,0,0,0,9,36.11"/><path id="Fill-61" class="cls-1" d="M13.57,40.63a2.26,2.26,0,1,0-2.25,2.18,2.22,2.22,0,0,0,2.25-2.18"/><path id="Fill-63" class="cls-1" d="M19.42,43.6a2.18,2.18,0,1,0-2.18,2.1,2.15,2.15,0,0,0,2.18-2.1"/><path id="Fill-65" class="cls-1" d="M26.16,44.66a2.1,2.1,0,1,0-2.1,2,2.07,2.07,0,0,0,2.1-2"/><path id="Fill-67" class="cls-1" d="M32.91,43.6a2,2,0,1,0-2,1.95,2,2,0,0,0,2-1.95"/><path id="Fill-69" class="cls-1" d="M38.76,40.63a2,2,0,1,0-1.95,1.89,1.92,1.92,0,0,0,1.95-1.89"/><path id="Fill-71" class="cls-1" d="M43.35,36.11a1.87,1.87,0,1,0-1.87,1.81,1.84,1.84,0,0,0,1.87-1.81"/><path id="Fill-73" class="cls-1" d="M46.34,30.38a1.8,1.8,0,1,0-1.8,1.73,1.77,1.77,0,0,0,1.8-1.73"/><path id="Fill-75" class="cls-1" d="M47.36,23.77a1.72,1.72,0,1,0-1.72,1.67,1.69,1.69,0,0,0,1.72-1.67"/><path id="Fill-77" class="cls-1" d="M46.19,17.17a1.65,1.65,0,1,0-1.65,1.59,1.62,1.62,0,0,0,1.65-1.59"/><path id="Fill-79" class="cls-1" d="M43.05,11.44A1.57,1.57,0,1,0,41.48,13a1.54,1.54,0,0,0,1.57-1.52"/><path id="Fill-81" class="cls-1" d="M38.3,6.92a1.49,1.49,0,1,0-1.49,1.44A1.47,1.47,0,0,0,38.3,6.92"/><path id="Fill-83" class="cls-1" d="M32.3,4a1.42,1.42,0,0,0-2.83,0A1.42,1.42,0,0,0,32.3,4"/><path id="Fill-85" class="cls-1" d="M26.92,10a2.86,2.86,0,1,0-2.86,2.77A2.81,2.81,0,0,0,26.92,10"/><path id="Fill-87" class="cls-1" d="M19.61,11.84a2.74,2.74,0,1,0-2.74,2.64,2.69,2.69,0,0,0,2.74-2.64"/><path id="Fill-89" class="cls-1" d="M14.37,16.78a2.61,2.61,0,1,0-2.61,2.52,2.57,2.57,0,0,0,2.61-2.52"/><path id="Fill-91" class="cls-1" d="M12.3,23.74a2.48,2.48,0,1,0-2.48,2.4,2.44,2.44,0,0,0,2.48-2.4"/><path id="Fill-93" class="cls-1" d="M14.12,30.7A2.36,2.36,0,1,0,11.76,33a2.32,2.32,0,0,0,2.36-2.27"/><path id="Fill-95" class="cls-1" d="M19.1,35.64a2.23,2.23,0,1,0-2.23,2.16,2.19,2.19,0,0,0,2.23-2.16"/><path id="Fill-97" class="cls-1" d="M26.16,37.52a2.1,2.1,0,1,0-2.1,2,2.07,2.07,0,0,0,2.1-2"/><path id="Fill-99" class="cls-1" d="M33.22,35.64a2,2,0,1,0-2,1.91,1.94,1.94,0,0,0,2-1.91"/><path id="Fill-101" class="cls-1" d="M38.21,30.7a1.85,1.85,0,1,0-1.85,1.78,1.82,1.82,0,0,0,1.85-1.78"/><path id="Fill-103" class="cls-1" d="M40,23.74a1.73,1.73,0,1,0-1.72,1.66A1.7,1.7,0,0,0,40,23.74"/><path id="Fill-105" class="cls-1" d="M38,16.78a1.59,1.59,0,1,0-1.59,1.54A1.56,1.56,0,0,0,38,16.78"/><path id="Fill-107" class="cls-1" d="M32.72,11.84a1.47,1.47,0,1,0-1.47,1.42,1.44,1.44,0,0,0,1.47-1.42"/></g></g></g></g></svg>