<?xml version="1.0" encoding="UTF-8"?>
<svg width="256px" height="48px" viewBox="0 0 256 48" version="1.1" xmlns="http://www.w3.org/2000/svg" xmlns:xlink="http://www.w3.org/1999/xlink">
    <!-- Generator: Sketch 55.2 (78181) - https://sketchapp.com -->
    <title>Logo/white</title>
    <desc>Created with Sketch.</desc>
    <g id="Symbols" stroke="none" stroke-width="1" fill="none" fill-rule="evenodd">
        <g id="Menu/120-V2" transform="translate(-24.000000, -36.000000)">
            <g id="Logo/black" transform="translate(24.000000, 36.000000)">
                <g id="Group" transform="translate(62.154362, 0.332468)" fill="#1E272E">
                    <polygon id="Fill-2" points="-8.02913291e-13 19.9480519 -8.02913291e-13 -1.77635684e-15 14.2961039 -1.77635684e-15 14.2961039 3.51528087 4.3320119 3.51528087 4.3320119 8.20232202 12.9678474 8.20232202 12.9678474 11.5781646 4.3320119 11.5781646 4.3320119 19.9480519"></polygon>
                    <path d="M16.2909091,3.4036704 L20.2805195,3.4036704 L20.2805195,-1.77635684e-15 L16.2909091,-1.77635684e-15 L16.2909091,3.4036704 Z M16.2909091,19.9480519 L20.2805195,19.9480519 L20.2805195,5.49614223 L16.2909091,5.49614223 L16.2909091,19.9480519 Z" id="Fill-3"></path>
                    <path d="M30.1729491,4.85011053 C34.8305975,4.85011053 37.4058024,8.01617327 37.4058024,12.8635307 C37.4058024,13.0594564 37.3766339,13.283629 37.3766339,13.4795547 L26.9901709,13.4795547 C27.1062242,15.8895607 28.4079454,17.1222096 30.4621515,17.1222096 C31.9087842,17.1222096 33.0081878,16.3376054 33.3551066,15.1611499 L37.1457685,15.4688614 C36.0460545,18.5790312 33.7315042,20.0640997 30.3752666,20.0640997 C26.0933951,20.0640997 22.9109272,17.5143615 22.9109272,12.5272718 C22.9109272,7.53988156 26.3248812,4.85011053 30.1729491,4.85011053 M27.0481975,11.0142568 L33.3551066,11.0142568 C33.3551066,9.05319704 32.1114121,7.79200064 30.2309757,7.79200064 C27.7712036,7.79200064 27.0481975,9.9213401 27.0481975,11.0142568" id="Fill-4"></path>
                    <path d="M49.3264346,5.27056943 L48.7188613,8.80053706 C48.1981728,8.54871848 47.5905995,8.40838521 47.0407425,8.40838521 C44.205814,8.40838521 43.6848152,10.930177 43.6848152,13.367829 L43.6848152,19.6999544 L39.663288,19.6999544 L39.663288,5.18642957 L43.4533292,5.18642957 L43.4533292,7.56788811 L43.5399037,7.56788811 C44.465848,5.91484036 45.912791,4.87811708 47.5617413,4.87811708 C48.1404565,4.87811708 48.776888,4.9902034 49.3264346,5.27056943" id="Fill-6"></path>
                    <path d="M63.5035595,8.94078018 L63.5035595,14.9648937 C63.5035595,16.6738343 63.5612758,18.2989356 64.2265655,19.6998643 L60.1764904,19.6998643 C60.0318892,19.3077124 59.8584298,18.6910875 59.7712346,18.2150963 C58.4406552,19.5318851 56.7045098,20.0640697 54.9395061,20.0640697 C51.9596661,20.0640697 49.9054601,18.4669148 49.9054601,15.7491974 C49.9054601,12.8073073 52.0754092,11.7143906 55.1709922,11.2663458 C57.0517389,10.9859798 58.7878843,10.7897536 59.5397486,10.257569 L59.5397486,9.64124452 C59.5397486,8.04408967 58.5852565,7.65193782 56.8494213,7.65193782 C55.142134,7.65193782 54.4768443,8.49273542 54.1873316,9.64124452 L50.339574,9.33293203 C50.8599522,6.05478298 53.4640152,4.85008048 57.0809074,4.85008048 C60.7552055,4.85008048 63.5035595,5.94269666 63.5035595,8.94078018 M58.5852565,16.589995 C59.3662892,15.9454235 59.5397486,15.048733 59.5397486,13.7878371 L59.5397486,12.6672745 C59.0190601,12.9752865 57.7461971,13.1997596 56.7045098,13.3956853 C55.2867352,13.6757508 53.9269874,14.0120098 53.9269874,15.4688313 C53.9269874,16.7579742 54.9975328,17.3742987 56.2998746,17.3742987 C57.1960298,17.3742987 58.0934261,16.9821468 58.5852565,16.589995" id="Fill-8"></path>
                    <polygon id="Fill-11" points="89.7662338 -1.77635684e-15 89.7662338 19.9480519 85.6565787 19.9480519 85.6565787 5.04999959 85.5981194 5.04999959 81.0217281 19.9480519 77.2328174 19.9480519 72.6276653 5.04999959 72.5688934 5.04999959 72.5688934 19.9480519 68.4883117 19.9480519 68.4883117 -1.77635684e-15 74.8428651 -1.77635684e-15 79.185732 13.7544191 79.2148053 13.7544191 83.3829197 -1.77635684e-15"></polygon>
                    <path d="M99.3797246,4.84973226 C104.020739,4.84973226 106.586746,8.00967109 106.586746,12.8476526 C106.586746,13.0431993 106.557682,13.2669383 106.557682,13.462485 L96.2083135,13.462485 C96.3236432,15.8678295 97.6210246,17.0980942 99.6678942,17.0980942 C101.10936,17.0980942 102.204838,16.3150076 102.550517,15.1408276 L106.327332,15.4479439 C105.231546,18.552098 102.925571,20.034294 99.5813196,20.034294 C95.3144313,20.034294 92.1433294,17.4894876 92.1433294,12.5120441 C92.1433294,7.53430064 95.5453999,4.84973226 99.3797246,4.84973226 M96.2661329,11.0019556 L102.550517,11.0019556 C102.550517,9.04468901 101.311265,7.78593206 99.4372349,7.78593206 C96.986866,7.78593206 96.2661329,9.91115288 96.2661329,11.0019556" id="Fill-12"></path>
                    <path d="M108.403266,15.2523372 L112.324165,14.9728134 C112.52576,16.566879 113.794386,17.3217733 115.495267,17.3217733 C117.282722,17.3217733 118.263179,16.6505562 118.263179,15.6440305 C118.263179,14.9728134 117.744041,14.497443 116.389149,14.1618344 C115.235853,13.8823106 114.169131,13.6303793 113.160228,13.3508555 C110.911763,12.7078307 108.864894,11.8686594 108.864894,9.37963773 C108.864894,6.38795305 111.488412,4.84967228 115.235853,4.84967228 C118.897028,4.84967228 121.318642,6.02445212 121.838089,9.07252143 L118.03252,9.40812996 C117.80186,8.06569582 116.792958,7.53424065 115.235853,7.53424065 C113.909716,7.53424065 112.727974,7.9538263 112.727974,8.8487824 C112.727974,9.37963773 113.217738,9.8274157 114.169131,10.0790471 C115.034258,10.3027861 116.129426,10.5544176 117.081127,10.7781566 C119.84873,11.4214813 122.29879,12.1763755 122.29879,15.1128753 C122.29879,17.4897275 120.569463,20.0621264 115.495267,20.0621264 C111.718453,20.0621264 108.83552,18.5523379 108.403266,15.2523372" id="Fill-14"></path>
                    <path d="M124.173716,15.2523372 L128.094306,14.9728134 C128.29621,16.566879 129.564527,17.3217733 131.265408,17.3217733 C133.053172,17.3217733 134.033629,16.6505562 134.033629,15.6440305 C134.033629,14.9728134 133.514182,14.497443 132.158981,14.1618344 C131.006303,13.8823106 129.939581,13.6303793 128.930678,13.3508555 C126.682213,12.7078307 124.635035,11.8686594 124.635035,9.37963773 C124.635035,6.38795305 127.258862,4.84967228 131.006303,4.84967228 C134.667478,4.84967228 137.089092,6.02445212 137.60823,9.07252143 L133.802351,9.40812996 C133.571692,8.06569582 132.563408,7.53424065 131.006303,7.53424065 C129.679857,7.53424065 128.498114,7.9538263 128.498114,8.8487824 C128.498114,9.37963773 128.987879,9.8274157 129.939581,10.0790471 C130.804708,10.3027861 131.899876,10.5544176 132.851268,10.7781566 C135.618871,11.4214813 138.06893,12.1763755 138.06893,15.1128753 C138.06893,17.4897275 136.339295,20.0621264 131.265408,20.0621264 C127.488903,20.0621264 124.60597,18.5523379 124.173716,15.2523372" id="Fill-16"></path>
                    <path d="M147.352752,4.84973226 C151.994075,4.84973226 154.559774,8.00967109 154.559774,12.8476526 C154.559774,13.0431993 154.531018,13.2669383 154.531018,13.462485 L144.181341,13.462485 C144.29667,15.8678295 145.594052,17.0980942 147.641231,17.0980942 C149.082388,17.0980942 150.177865,16.3150076 150.523854,15.1408276 L154.300668,15.4479439 C153.204882,18.552098 150.898598,20.034294 147.554347,20.034294 C143.287768,20.034294 140.116666,17.4894876 140.116666,12.5120441 C140.116666,7.53430064 143.518427,4.84973226 147.352752,4.84973226 M144.23916,11.0019556 L150.523854,11.0019556 C150.523854,9.04468901 149.284292,7.78593206 147.410262,7.78593206 C144.959584,7.78593206 144.23916,9.91115288 144.23916,11.0019556" id="Fill-18"></path>
                </g>
                <g id="Group-2" transform="translate(62.186673, 27.260083)" fill="#868B91">
                    <path d="M1.71240799e-12,19.994351 L1.71240799e-12,-2.48689958e-14 L9.08105143,-2.48689958e-14 C12.770673,-2.48689958e-14 16.259318,1.14658752 16.259318,5.06172053 C16.259318,6.99109472 15.1925959,8.44509847 13.4051408,9.25607745 C15.9423934,9.95518692 17.2682207,11.8008839 17.2682207,14.2059285 C17.2682207,18.0928692 13.9814799,19.994351 10.1765286,19.994351 L1.71240799e-12,19.994351 Z M9.51361496,7.99762042 C10.7819321,7.9136433 12.0505583,7.21483375 12.0505583,5.67685289 C12.0505583,4.08278732 10.9835271,3.38367785 8.79257268,3.38367785 L4.35284447,3.38367785 L4.35284447,8.02581273 L9.51361496,7.99762042 Z M9.62863543,16.6106731 C11.357962,16.6106731 12.8288017,15.8557788 12.8288017,13.8982123 C12.8288017,11.7450991 11.011973,11.213644 9.31140156,11.213644 L4.35284447,11.1857516 L4.35284447,16.6106731 L9.62863543,16.6106731 Z" id="Fill-20"></path>
                    <path d="M27.1862006,5.17335011 C31.481844,5.17335011 34.9123604,7.91370329 34.9123604,12.7516848 C34.9123604,16.750495 32.2028863,20.3579119 27.1862006,20.3579119 C22.0835587,20.3579119 19.4887959,16.974234 19.4887959,12.6677077 C19.4887959,8.16563463 22.7467816,5.17335011 27.1862006,5.17335011 M27.1862006,17.3098426 C29.6081235,17.3098426 30.8186212,15.3522761 30.8186212,12.7516848 C30.8186212,10.1789859 29.6081235,8.22141942 27.1862006,8.22141942 C24.7645869,8.22141942 23.5540892,10.1789859 23.5540892,12.7798771 C23.5540892,15.3522761 24.7645869,17.3098426 27.1862006,17.3098426" id="Fill-22"></path>
                    <polygon id="Fill-25" points="37.2040528 19.9503067 41.1936632 19.9503067 41.1936632 0.00225473436 37.2040528 0.00225473436"></polygon>
                    <polygon id="Fill-26" points="48.2456046 16.8592012 50.3382234 16.8041456 56.8196372 16.8041456 56.8196372 19.9503067 43.1884684 19.9503067 43.1884684 16.9971362 51.2104337 8.66242888 49.0888243 8.71778048 43.769838 8.71778048 43.769838 5.65420279 56.325551 5.65420279 56.325551 8.49696609"></polygon>
                    <path d="M72.3778169,9.30083292 L72.3778169,15.2896525 C72.3778169,16.9885809 72.435301,18.6041611 73.0979135,19.996882 L69.0641364,19.996882 C68.919808,19.6070277 68.7467376,18.9940154 68.6605114,18.5205142 C67.3346684,19.8295882 65.6055094,20.3589536 63.8479175,20.3589536 C60.8797597,20.3589536 58.8341292,18.7711561 58.8341292,16.0693611 C58.8341292,13.1447069 60.9956551,12.0581934 64.0787811,11.6127736 C65.9516503,11.3340502 67.6805002,11.1389736 68.4299569,10.609907 L68.4299569,9.9971934 C68.4299569,8.40939592 67.4786877,8.0195416 65.7498378,8.0195416 C64.0494209,8.0195416 63.3871175,8.85541316 63.0987698,9.9971934 L59.2661871,9.69068724 C59.7850893,6.43174412 62.3783642,5.2340997 65.9803923,5.2340997 C69.6405227,5.2340997 72.3778169,6.3203145 72.3778169,9.30083292 M67.4786877,16.9052327 C68.2568865,16.2641389 68.4299569,15.3730007 68.4299569,14.1194921 L68.4299569,13.0054945 C67.9110547,13.311702 66.6430048,13.5345612 65.6055094,13.7296377 C64.1937493,14.0080624 62.8394732,14.3423513 62.8394732,15.7906377 C62.8394732,17.0722278 63.9057106,17.6849413 65.2025026,17.6849413 C66.0956696,17.6849413 66.9888366,17.295087 67.4786877,16.9052327" id="Fill-27"></path>
                    <path d="M85.6332187,11.2784548 C85.6332187,9.63509193 84.9412461,8.24237098 83.0968099,8.24237098 C81.4257531,8.24237098 80.474793,9.21745488 80.1867543,10.1088919 C79.9852509,10.7213067 79.8990248,11.6683092 79.8990248,12.9496005 L79.8990248,19.9968521 L75.8646296,19.9968521 L75.8646296,5.56835871 L79.6394191,5.56835871 L79.6394191,7.65744013 L79.6969032,7.65744013 C80.8493668,6.01407721 82.5788348,5.23406983 84.422962,5.23406983 C88.5435833,5.23406983 89.6676139,7.5460105 89.6676139,11.0833783 L89.6676139,19.9968521 L85.6332187,19.9968521 L85.6332187,11.2784548 Z" id="Fill-29"></path>
                    <path d="M99.5806241,5.23406983 C103.874316,5.23406983 107.303274,7.96364754 107.303274,12.7826054 C107.303274,16.7656917 104.594412,20.3589237 99.5806241,20.3589237 C94.4799915,20.3589237 91.8867167,16.988551 91.8867167,12.6989585 C91.8867167,8.21458826 95.1432221,5.23406983 99.5806241,5.23406983 M99.5806241,17.3228399 C102.001138,17.3228399 103.211703,15.3729708 103.211703,12.7826054 C103.211703,10.2200228 102.001138,8.2701537 99.5806241,8.2701537 C97.1601106,8.2701537 95.9495448,10.2200228 95.9495448,12.8106869 C95.9495448,15.3729708 97.1601106,17.3228399 99.5806241,17.3228399" id="Fill-31"></path>
                    <path d="M112.087527,19.9967924 L112.087527,0.0810620673 L121.164453,0.0810620673 C124.853016,0.0810620673 128.339767,1.22314104 128.339767,5.1228792 C128.339767,7.04466681 127.27353,8.4929532 125.486887,9.3007433 C128.022677,9.99710378 129.348211,11.8355432 129.348211,14.2311308 C129.348211,18.1027875 126.063582,19.9967924 122.259741,19.9967924 L112.087527,19.9967924 Z M121.596511,8.0472347 C122.864561,7.9635878 124.132302,7.26752606 124.132302,5.73559277 C124.132302,4.14779529 123.066064,3.45143481 120.876414,3.45143481 L116.439012,3.45143481 L116.439012,8.07531616 L121.596511,8.0472347 Z M121.711788,16.6264196 C123.440947,16.6264196 124.9105,15.8744937 124.9105,13.9246246 C124.9105,11.7799778 123.095424,11.2506124 121.395007,11.2506124 L116.439012,11.2228297 L116.439012,16.6264196 L121.711788,16.6264196 Z" id="Fill-33"></path>
                    <path d="M138.714505,5.23406983 C143.007887,5.23406983 146.436845,7.96364754 146.436845,12.7826054 C146.436845,16.7656917 143.728293,20.3589237 138.714505,20.3589237 C133.613872,20.3589237 131.020288,16.988551 131.020288,12.6989585 C131.020288,8.21458826 134.276175,5.23406983 138.714505,5.23406983 M138.714505,17.3228399 C141.135018,17.3228399 142.345275,15.3729708 142.345275,12.7826054 C142.345275,10.2200228 141.135018,8.2701537 138.714505,8.2701537 C136.293682,8.2701537 135.083425,10.2200228 135.083425,12.8106869 C135.083425,15.3729708 136.293682,17.3228399 138.714505,17.3228399" id="Fill-35"></path>
                    <polygon id="Fill-38" points="153.305114 16.8592012 155.39826 16.8041456 161.879377 16.8041456 161.879377 19.9503067 148.248209 19.9503067 148.248209 16.9971362 156.269807 8.66242888 154.148295 8.71778048 148.829552 8.71778048 148.829552 5.65420279 161.385002 5.65420279 161.385002 8.49696609"></polygon>
                    <path d="M170.435673,5.20926149 C175.077064,5.20926149 177.642939,8.36185162 177.642939,13.188582 C177.642939,13.383674 177.613876,13.6068927 177.613876,13.8019846 L167.264736,13.8019846 C167.37975,16.2017353 168.677064,17.4291389 170.724137,17.4291389 C172.165219,17.4291389 173.260639,16.6478734 173.60692,15.4764241 L177.383229,15.7828262 C176.288118,18.8800604 173.981335,20.3585103 170.637876,20.3585103 C166.371209,20.3585103 163.199963,17.819622 163.199963,12.853754 C163.199963,7.88758668 166.601548,5.20926149 170.435673,5.20926149 M167.322243,11.3471773 L173.60692,11.3471773 C173.60692,9.39416331 172.367113,8.13893214 170.49349,8.13893214 C168.042939,8.13893214 167.322243,10.2589114 167.322243,11.3471773" id="Fill-39"></path>
                    <path d="M189.66455,11.2633955 C189.66455,9.61738201 188.972608,8.22241473 187.127739,8.22241473 C185.456009,8.22241473 184.504048,9.19907136 184.215893,10.0919462 C184.014309,10.7053488 183.92743,11.6538786 183.92743,12.9372366 L183.92743,19.9958547 L179.89172,19.9958547 L179.89172,5.54408954 L183.668338,5.54408954 L183.668338,7.63654045 L183.725845,7.63654045 C184.878773,5.99052694 186.608628,5.20926149 188.453497,5.20926149 C192.575777,5.20926149 193.699951,7.5249311 193.699951,11.0680043 L193.699951,19.9958547 L189.66455,19.9958547 L189.66455,11.2633955 Z" id="Fill-41"></path>
                </g>
                <g id="Group-3" transform="translate(0.000000, 0.120287)" fill="#282D31">
                    <path d="M29.780344,23.617915 C29.780344,20.5613748 27.2200348,18.0832283 24.0614647,18.0832283 C20.9032039,18.0832283 18.3422763,20.5613748 18.3422763,23.617915 C18.3422763,26.6747545 20.9032039,29.1526018 24.0614647,29.1526018 C27.2200348,29.1526018 29.780344,26.6747545 29.780344,23.617915" id="Fill-43"></path>
                    <path d="M26.921028,2.76719377 C26.921028,1.23877403 25.6407188,-7.10542736e-15 24.0614338,-7.10542736e-15 C22.4821488,-7.10542736e-15 21.2021488,1.23877403 21.2021488,2.76719377 C21.2021488,4.29561351 22.4821488,5.53438753 24.0614338,5.53438753 C25.6407188,5.53438753 26.921028,4.29561351 26.921028,2.76719377" id="Fill-45"></path>
                    <path d="M20.0235285,3.83200083 C20.0235285,2.34427512 18.777229,1.13811616 17.2399923,1.13811616 C15.7024464,1.13811616 14.456456,2.34427512 14.456456,3.83200083 C14.456456,5.31972655 15.7024464,6.52588551 17.2399923,6.52588551 C18.777229,6.52588551 20.0235285,5.31972655 20.0235285,3.83200083" id="Fill-47"></path>
                    <path d="M14.0232348,6.79709922 C14.0232348,5.34976831 12.8109449,4.17682286 11.3157565,4.17682286 C9.81994976,4.17682286 8.6076599,5.34976831 8.6076599,6.79709922 C8.6076599,8.24443013 9.81994976,9.41737558 11.3157565,9.41737558 C12.8109449,9.41737558 14.0232348,8.24443013 14.0232348,6.79709922" id="Fill-49"></path>
                    <path d="M9.27551691,11.318415 C9.27551691,9.91177808 8.09723671,8.77174691 6.64378744,8.77174691 C5.19033816,8.77174691 4.01205797,9.91177808 4.01205797,11.318415 C4.01205797,12.7250518 5.19033816,13.8653822 6.64378744,13.8653822 C8.09723671,13.8653822 9.27551691,12.7250518 9.27551691,11.318415" id="Fill-51"></path>
                    <path d="M6.13571401,17.0520237 C6.13571401,15.6860808 4.99144348,14.5786647 3.58004251,14.5786647 C2.16864155,14.5786647 1.02406184,15.6860808 1.02406184,17.0520237 C1.02406184,18.4179665 2.16864155,19.5253826 3.58004251,19.5253826 C4.99144348,19.5253826 6.13571401,18.4179665 6.13571401,17.0520237" id="Fill-53"></path>
                    <path d="M4.95922705,23.6538514 C4.95922705,22.3286026 3.84896618,21.2541008 2.47961353,21.2541008 C1.10995169,21.2541008 -2.75601764e-12,22.3286026 -2.75601764e-12,23.6538514 C-2.75601764e-12,24.9791003 1.10995169,26.0536021 2.47961353,26.0536021 C3.84896618,26.0536021 4.95922705,24.9791003 4.95922705,23.6538514" id="Fill-55"></path>
                    <path d="M5.98369082,30.2556792 C5.98369082,28.9708251 4.90774879,27.9292376 3.58013527,27.9292376 C2.25252174,27.9292376 1.17596135,28.9708251 1.17596135,30.2556792 C1.17596135,31.5405332 2.25252174,32.5821207 3.58013527,32.5821207 C4.90774879,32.5821207 5.98369082,31.5405332 5.98369082,30.2556792" id="Fill-57"></path>
                    <path d="M8.97162512,35.9892281 C8.97162512,34.7450681 7.9290744,33.7363948 6.64381836,33.7363948 C5.35825314,33.7363948 4.31570242,34.7450681 4.31570242,35.9892281 C4.31570242,37.2333881 5.35825314,38.2420613 6.64381836,38.2420613 C7.9290744,38.2420613 8.97162512,37.2333881 8.97162512,35.9892281" id="Fill-59"></path>
                    <path d="M13.5674744,40.5105438 C13.5674744,39.3070778 12.5589333,38.3313189 11.3157256,38.3313189 C10.0718995,38.3313189 9.06397681,39.3070778 9.06397681,40.5105438 C9.06397681,41.7140098 10.0718995,42.6897687 11.3157256,42.6897687 C12.5589333,42.6897687 13.5674744,41.7140098 13.5674744,40.5105438" id="Fill-61"></path>
                    <path d="M19.4160541,43.475702 C19.4160541,42.3126309 18.4415227,41.3697862 17.2400541,41.3697862 C16.0382763,41.3697862 15.0640541,42.3126309 15.0640541,43.475702 C15.0640541,44.6387732 16.0382763,45.5813186 17.2400541,45.5813186 C18.4415227,45.5813186 19.4160541,44.6387732 19.4160541,43.475702" id="Fill-63"></path>
                    <path d="M26.1615304,44.5405091 C26.1615304,43.4181319 25.2210087,42.5082016 24.0615884,42.5082016 C22.9018589,42.5082016 21.9619556,43.4181319 21.9619556,44.5405091 C21.9619556,45.6628862 22.9018589,46.5728166 24.0615884,46.5728166 C25.2210087,46.5728166 26.1615304,45.6628862 26.1615304,44.5405091" id="Fill-65"></path>
                    <path d="M32.9070068,43.475702 C32.9070068,42.3940189 32.0004947,41.5170028 30.8828135,41.5170028 C29.7651324,41.5170028 28.8592386,42.3940189 28.8592386,43.475702 C28.8592386,44.5573851 29.7651324,45.4344012 30.8828135,45.4344012 C32.0004947,45.4344012 32.9070068,44.5573851 32.9070068,43.475702" id="Fill-67"></path>
                    <path d="M38.7554319,40.5105438 C38.7554319,39.4692555 37.8832386,38.6254529 36.8076058,38.6254529 C35.7313546,38.6254529 34.8594705,39.4692555 34.8594705,40.5105438 C34.8594705,41.5518321 35.7313546,42.3959339 36.8076058,42.3959339 C37.8832386,42.3959339 38.7554319,41.5518321 38.7554319,40.5105438" id="Fill-69"></path>
                    <path d="M43.3512812,35.9892281 C43.3512812,34.9886338 42.5130976,34.1774462 41.4792039,34.1774462 C40.4453101,34.1774462 39.6074357,34.9886338 39.6074357,35.9892281 C39.6074357,36.9898223 40.4453101,37.8010099 41.4792039,37.8010099 C42.5130976,37.8010099 43.3512812,36.9898223 43.3512812,35.9892281" id="Fill-71"></path>
                    <path d="M46.3392155,30.2556792 C46.3392155,29.2957789 45.5350415,28.5175057 44.5431961,28.5175057 C43.5507324,28.5175057 42.7465585,29.2957789 42.7465585,30.2556792 C42.7465585,31.2155794 43.5507324,31.9938527 44.5431961,31.9938527 C45.5350415,31.9938527 46.3392155,31.2155794 46.3392155,30.2556792" id="Fill-73"></path>
                    <path d="M47.36337,23.6538514 C47.36337,22.734346 46.5932058,21.9892862 45.6430995,21.9892862 C44.6933024,21.9892862 43.9231382,22.734346 43.9231382,23.6538514 C43.9231382,24.5733569 44.6933024,25.3184166 45.6430995,25.3184166 C46.5932058,25.3184166 47.36337,24.5733569 47.36337,23.6538514" id="Fill-75"></path>
                    <path d="M46.1871923,17.0520237 C46.1871923,16.1732123 45.4510377,15.4607676 44.5432889,15.4607676 C43.6352309,15.4607676 42.8990763,16.1732123 42.8990763,17.0520237 C42.8990763,17.9308351 43.6352309,18.6432798 44.5432889,18.6432798 C45.4510377,18.6432798 46.1871923,17.9308351 46.1871923,17.0520237" id="Fill-77"></path>
                    <path d="M43.047544,11.318415 C43.047544,10.4802976 42.345399,9.80076717 41.4790802,9.80076717 C40.6130705,9.80076717 39.9109256,10.4802976 39.9109256,11.318415 C39.9109256,12.1565324 40.6130705,12.8360628 41.4790802,12.8360628 C42.345399,12.8360628 43.047544,12.1565324 43.047544,11.318415" id="Fill-79"></path>
                    <path d="M38.2998261,6.79709922 C38.2998261,5.99937662 37.6313816,5.35305974 36.8074203,5.35305974 C35.9834589,5.35305974 35.3150145,5.99937662 35.3150145,6.79709922 C35.3150145,7.59482182 35.9834589,8.24143792 36.8074203,8.24143792 C37.6313816,8.24143792 38.2998261,7.59482182 38.2998261,6.79709922" id="Fill-81"></path>
                    <path d="M32.2993469,3.83200083 C32.2993469,3.07497226 31.6652213,2.46127044 30.8826899,2.46127044 C30.1007768,2.46127044 29.4666512,3.07497226 29.4666512,3.83200083 C29.4666512,4.5890294 30.1007768,5.20273122 30.8826899,5.20273122 C31.6652213,5.20273122 32.2993469,4.5890294 32.2993469,3.83200083" id="Fill-83"></path>
                    <path d="M26.921028,9.83287356 C26.921028,8.30445382 25.6407188,7.06538057 24.0614338,7.06538057 C22.4821488,7.06538057 21.2021488,8.30445382 21.2021488,9.83287356 C21.2021488,11.3612933 22.4821488,12.6000673 24.0614338,12.6000673 C25.6407188,12.6000673 26.921028,11.3612933 26.921028,9.83287356" id="Fill-85"></path>
                    <path d="M19.6053643,11.7149423 C19.6053643,10.2541465 18.3816348,9.07012987 16.8722242,9.07012987 C15.3631227,9.07012987 14.1393932,10.2541465 14.1393932,11.7149423 C14.1393932,13.1757382 15.3631227,14.3597548 16.8722242,14.3597548 C18.3816348,14.3597548 19.6053643,13.1757382 19.6053643,11.7149423" id="Fill-87"></path>
                    <path d="M14.3686493,16.6603437 C14.3686493,15.2671717 13.2014995,14.1379125 11.7625816,14.1379125 C10.3230454,14.1379125 9.15589565,15.2671717 9.15589565,16.6603437 C9.15589565,18.0535156 10.3230454,19.1827749 11.7625816,19.1827749 C13.2014995,19.1827749 14.3686493,18.0535156 14.3686493,16.6603437" id="Fill-89"></path>
                    <path d="M12.297399,23.617915 C12.297399,22.2926662 11.1871382,21.2181644 9.81747633,21.2181644 C8.44812367,21.2181644 7.33755362,22.2926662 7.33755362,23.617915 C7.33755362,24.9434631 8.44812367,26.0176657 9.81747633,26.0176657 C11.1871382,26.0176657 12.297399,24.9434631 12.297399,23.617915" id="Fill-91"></path>
                    <path d="M14.1154937,30.5755462 C14.1154937,29.3179212 13.0621217,28.2981768 11.7626435,28.2981768 C10.4625469,28.2981768 9.40917488,29.3179212 9.40917488,30.5755462 C9.40917488,31.8331711 10.4625469,32.8529155 11.7626435,32.8529155 C13.0621217,32.8529155 14.1154937,31.8331711 14.1154937,30.5755462" id="Fill-93"></path>
                    <path d="M19.0985585,35.5210074 C19.0985585,34.3310063 18.1020754,33.3663185 16.8721623,33.3663185 C15.6425585,33.3663185 14.6457662,34.3310063 14.6457662,35.5210074 C14.6457662,36.7110084 15.6425585,37.6756962 16.8721623,37.6756962 C18.1020754,37.6756962 19.0985585,36.7110084 19.0985585,35.5210074" id="Fill-95"></path>
                    <path d="M26.1615304,37.4030163 C26.1615304,36.2806392 25.2210087,35.3707088 24.0615884,35.3707088 C22.9018589,35.3707088 21.9619556,36.2806392 21.9619556,37.4030163 C21.9619556,38.5253935 22.9018589,39.4353238 24.0615884,39.4353238 C25.2210087,39.4353238 26.1615304,38.5253935 26.1615304,37.4030163" id="Fill-97"></path>
                    <path d="M33.2238841,35.5210074 C33.2238841,34.4662541 32.3405604,33.6110811 31.2503961,33.6110811 C30.1608502,33.6110811 29.2775266,34.4662541 29.2775266,35.5210074 C29.2775266,36.5757606 30.1608502,37.4306344 31.2503961,37.4306344 C32.3405604,37.4306344 33.2238841,36.5757606 33.2238841,35.5210074" id="Fill-99"></path>
                    <path d="M38.2074126,30.5755462 C38.2074126,29.5884168 37.3806686,28.7883005 36.3606879,28.7883005 C35.3410164,28.7883005 34.5139633,29.5884168 34.5139633,30.5755462 C34.5139633,31.5626755 35.3410164,32.3627919 36.3606879,32.3627919 C37.3806686,32.3627919 38.2074126,31.5626755 38.2074126,30.5755462" id="Fill-101"></path>
                    <path d="M40.0255072,23.617915 C40.0255072,22.6987088 39.255343,21.9533498 38.3052367,21.9533498 C37.3551304,21.9533498 36.5849662,22.6987088 36.5849662,23.617915 C36.5849662,24.5374205 37.3551304,25.2827794 38.3052367,25.2827794 C39.255343,25.2827794 40.0255072,24.5374205 40.0255072,23.617915" id="Fill-103"></path>
                    <path d="M37.954257,16.6603437 C37.954257,15.8084621 37.2406725,15.1181598 36.3607498,15.1181598 C35.4805179,15.1181598 34.7672425,15.8084621 34.7672425,16.6603437 C34.7672425,17.5122252 35.4805179,18.2025276 36.3607498,18.2025276 C37.2406725,18.2025276 37.954257,17.5122252 37.954257,16.6603437" id="Fill-105"></path>
                    <path d="M32.717542,11.7149423 C32.717542,10.9306847 32.0605372,10.2951397 31.2504889,10.2951397 C30.4404406,10.2951397 29.7837449,10.9306847 29.7837449,11.7149423 C29.7837449,12.4989008 30.4404406,13.1347449 31.2504889,13.1347449 C32.0605372,13.1347449 32.717542,12.4989008 32.717542,11.7149423" id="Fill-107"></path>
                </g>
            </g>
        </g>
    </g>
</svg>